<?xml version="1.0" encoding="UTF-8" standalone="no"?>
<!-- Generator: Adobe Illustrator 22.0.1, SVG Export Plug-In . SVG Version: 6.00 Build 0)  -->

<svg
   xmlns:dc="http://purl.org/dc/elements/1.1/"
   xmlns:cc="http://creativecommons.org/ns#"
   xmlns:rdf="http://www.w3.org/1999/02/22-rdf-syntax-ns#"
   xmlns:svg="http://www.w3.org/2000/svg"
   xmlns="http://www.w3.org/2000/svg"
   xmlns:sodipodi="http://sodipodi.sourceforge.net/DTD/sodipodi-0.dtd"
   xmlns:inkscape="http://www.inkscape.org/namespaces/inkscape"
   version="1.1"
   id="svg2"
   inkscape:version="0.91 r13725"
   sodipodi:docname="Info.svg"
   x="0px"
   y="0px"
   viewBox="177.728 -155.271 453.5 453.5"
   enable-background="new 177.728 -155.271 453.543 453.543"
   xml:space="preserve"
   width="453.5"
   height="453.5"><metadata
     id="metadata13"><rdf:RDF><cc:Work
         rdf:about=""><dc:format>image/svg+xml</dc:format><dc:type
           rdf:resource="http://purl.org/dc/dcmitype/StillImage" /><dc:title /></cc:Work></rdf:RDF></metadata><defs
     id="defs11" /><sodipodi:namedview
     bordercolor="#666666"
     borderopacity="1"
     gridtolerance="10"
     guidetolerance="10"
     id="namedview4"
     inkscape:current-layer="svg2"
     inkscape:cx="75.841154"
     inkscape:cy="146.00009"
     inkscape:pageopacity="0"
     inkscape:pageshadow="2"
     inkscape:window-height="1056"
     inkscape:window-maximized="1"
     inkscape:window-width="1920"
     inkscape:window-x="0"
     inkscape:window-y="24"
     inkscape:zoom="1.2968228"
     objecttolerance="10"
     pagecolor="#ffffff"
     showgrid="false" /><g
     id="g4"
     transform="matrix(0.97641429,0,0,0.97630293,9.5967197,2.4473014)" /><polygon
     stroke-miterlimit="3.8637"
     points="615.7,281.5 195.7,281.5 195.7,-138.5 615.7,-138.5 "
     id="polygon6"
     transform="matrix(1.0695513,0,0,1.070032,-29.438983,-5.1201598)"
     style="fill:none;stroke:#232856;stroke-width:4;stroke-miterlimit:3.86369991" /><g
     id="g8"
     transform="matrix(0.97641429,0,0,0.97630293,9.5967197,2.4473014)"><path
       id="text5481"
       inkscape:connector-curvature="0"
       d="m 366.012,-53.813 c -0.075,-11.464 3.823,-21.11 11.695,-28.945 7.872,-7.972 17.543,-11.995 29.001,-12.07 11.177,-0.075 20.679,3.823 28.514,11.695 7.978,7.734 12.002,17.331 12.077,28.789 0.069,11.177 -3.83,20.754 -11.702,28.726 -7.728,7.834 -17.187,11.789 -28.364,11.858 -11.458,0.075 -21.173,-3.749 -29.151,-11.483 -7.972,-7.728 -11.995,-17.25 -12.07,-28.57 m 83.854,263.265 32.256,-0.206 0.169,25.677 -139.439,0.906 -0.162,-25.677 32.044,-0.206 -1.137,-174.244 -32.044,0.206 -0.169,-25.677 107.177,-0.7 1.305,199.921"
       style="fill:#232856" /></g></svg>