<?xml version="1.0" encoding="UTF-8" standalone="no"?>
<!-- Generator: Adobe Illustrator 22.0.1, SVG Export Plug-In . SVG Version: 6.00 Build 0)  -->

<svg
   xmlns:dc="http://purl.org/dc/elements/1.1/"
   xmlns:cc="http://creativecommons.org/ns#"
   xmlns:rdf="http://www.w3.org/1999/02/22-rdf-syntax-ns#"
   xmlns:svg="http://www.w3.org/2000/svg"
   xmlns="http://www.w3.org/2000/svg"
   xmlns:sodipodi="http://sodipodi.sourceforge.net/DTD/sodipodi-0.dtd"
   xmlns:inkscape="http://www.inkscape.org/namespaces/inkscape"
   version="1.1"
   id="svg2"
   inkscape:version="0.91 r13725"
   sodipodi:docname="Kartenmarker Positionierung.svg"
   x="0px"
   y="0px"
   viewBox="177.728 -155.271 453.543 453.543"
   enable-background="new 177.728 -155.271 453.543 453.543"
   xml:space="preserve"><metadata
     id="metadata14"><rdf:RDF><cc:Work
         rdf:about=""><dc:format>image/svg+xml</dc:format><dc:type
           rdf:resource="http://purl.org/dc/dcmitype/StillImage" /></cc:Work></rdf:RDF></metadata><defs
     id="defs12" /><sodipodi:namedview
     bordercolor="#666666"
     borderopacity="1"
     gridtolerance="10"
     guidetolerance="10"
     id="namedview4"
     inkscape:current-layer="svg2"
     inkscape:cx="416.3122"
     inkscape:cy="90.866904"
     inkscape:pageopacity="0"
     inkscape:pageshadow="2"
     inkscape:window-height="1056"
     inkscape:window-maximized="1"
     inkscape:window-width="1920"
     inkscape:window-x="0"
     inkscape:window-y="24"
     inkscape:zoom="1.1105238"
     objecttolerance="10"
     pagecolor="#ffffff"
     showgrid="false" /><g
     id="g4"
     transform="matrix(0.97641429,0,0,0.97630293,9.5965489,2.4901225)" /><polygon
     stroke-miterlimit="3.8637"
     points="195.7,-138.5 615.7,-138.5 615.7,281.5 195.7,281.5 "
     id="polygon6"
     transform="matrix(1.0695513,0,0,1.070032,-29.438983,-5.0771598)"
     style="fill:none;stroke:#232856;stroke-width:4;stroke-miterlimit:3.86369991" /><g
     id="g8"
     transform="matrix(1.0762264,0,0,1.0761037,-34.182221,-3.6316632)"><path
       d="m 407.6,-94.829 c -49.273,0 -89.214,39.938 -89.214,89.209 0,22.486 8.34,43.013 22.072,58.705 l -0.032,0.03 67.115,182.715 67.087,-182.624 C 488.423,37.503 496.803,16.926 496.803,-5.62 496.802,-54.891 456.865,-94.829 407.6,-94.829 Z m 0,127.586 c -21.199,0 -38.383,-17.182 -38.383,-38.378 0,-21.199 17.184,-38.382 38.383,-38.382 21.192,0 38.372,17.182 38.372,38.382 -10e-4,21.196 -17.181,38.378 -38.372,38.378 z"
       id="path10"
       inkscape:connector-curvature="0"
       style="fill:#232856" /></g></svg>