<?xml version="1.0" encoding="UTF-8" standalone="no"?>
<!-- Generator: Adobe Illustrator 22.0.1, SVG Export Plug-In . SVG Version: 6.00 Build 0)  -->

<svg
   xmlns:dc="http://purl.org/dc/elements/1.1/"
   xmlns:cc="http://creativecommons.org/ns#"
   xmlns:rdf="http://www.w3.org/1999/02/22-rdf-syntax-ns#"
   xmlns:svg="http://www.w3.org/2000/svg"
   xmlns="http://www.w3.org/2000/svg"
   xmlns:sodipodi="http://sodipodi.sourceforge.net/DTD/sodipodi-0.dtd"
   xmlns:inkscape="http://www.inkscape.org/namespaces/inkscape"
   version="1.1"
   id="svg2"
   inkscape:version="0.91 r13725"
   sodipodi:docname="Oeffnungszeiten.svg"
   x="0px"
   y="0px"
   viewBox="177.728 -155.271 453.5 453.5"
   enable-background="new 177.728 -155.271 453.543 453.543"
   xml:space="preserve"
   width="453.5"
   height="453.5"><metadata
     id="metadata14"><rdf:RDF><cc:Work
         rdf:about=""><dc:format>image/svg+xml</dc:format><dc:type
           rdf:resource="http://purl.org/dc/dcmitype/StillImage" /><dc:title /></cc:Work></rdf:RDF></metadata><defs
     id="defs12" /><sodipodi:namedview
     bordercolor="#666666"
     borderopacity="1"
     gridtolerance="10"
     guidetolerance="10"
     id="namedview4"
     inkscape:current-layer="svg2"
     inkscape:cx="108.069"
     inkscape:cy="207.7986"
     inkscape:pageopacity="0"
     inkscape:pageshadow="2"
     inkscape:window-height="1056"
     inkscape:window-maximized="1"
     inkscape:window-width="1920"
     inkscape:window-x="0"
     inkscape:window-y="24"
     inkscape:zoom="1.5705179"
     objecttolerance="10"
     pagecolor="#ffffff"
     showgrid="false" /><polygon
     stroke-miterlimit="3.8637"
     points="195.7,-138.5 615.7,-138.5 615.7,281.5 195.7,281.5 "
     id="polygon4"
     style="fill:none;stroke:#232856;stroke-width:4;stroke-miterlimit:3.86369991"
     transform="matrix(1.0695513,0,0,1.070032,-29.438983,-5.1201598)" /><g
     id="g6"
     transform="matrix(1.0352149,0,0,1.0350969,-22.001173,1.2121277)"><path
       d="m 500.576,62.105 -84.165,0 0,-84.164 c 0,-5.057 -4.1,-9.155 -9.155,-9.155 -5.054,0 -9.154,4.098 -9.154,9.155 l 0,93.205 0.01,0 c 0,0.04 -0.01,0.074 -0.01,0.113 0,5.057 4.1,9.156 9.154,9.156 0.04,0 0.079,-0.011 0.121,-0.011 l 0,0.011 93.199,0 c 5.054,0 9.153,-4.098 9.153,-9.156 0.001,-5.056 -4.099,-9.154 -9.153,-9.154 z"
       id="path8"
       inkscape:connector-curvature="0"
       style="fill:#232856" /><path
       d="m 419.559,-94.829 c -56.869,0 -107.01,28.804 -136.631,72.615 l 23.143,37.805 c 20.402,-42.532 63.862,-71.903 114.186,-71.903 69.904,0 126.574,56.667 126.574,126.571 0,69.904 -56.67,126.571 -126.574,126.571 -66.823,0 -121.514,-51.791 -126.211,-117.415 l 27.26,0 -45.145,-73.74 -45.14,73.74 24.01,0 c 4.889,86.628 76.672,155.378 164.527,155.378 91.023,0 164.816,-73.789 164.816,-164.81 0,-91.021 -73.793,-164.812 -164.815,-164.812 z"
       id="path10"
       inkscape:connector-curvature="0"
       style="fill:#232856" /></g></svg>